<?xml version="1.0" standalone="no"?>
<!DOCTYPE svg PUBLIC "-//W3C//DTD SVG 20010904//EN"
 "http://www.w3.org/TR/2001/REC-SVG-20010904/DTD/svg10.dtd">
<svg version="1.0" xmlns="http://www.w3.org/2000/svg"
 width="382.000000pt" height="109.000000pt" viewBox="0 0 382.000000 109.000000"
 preserveAspectRatio="xMidYMid meet">

<g transform="translate(0.000000,109.000000) scale(0.100000,-0.100000)"
fill="#cf4647" stroke="none">
<path d="M0 545 l0 -545 1910 0 1910 0 0 545 0 545 -1910 0 -1910 0 0 -545z
m411 291 c9 -18 7 -30 -6 -56 -9 -18 -30 -64 -45 -101 l-28 -69 87 0 c47 0 91
4 97 8 6 4 22 45 37 92 32 103 46 125 74 116 33 -11 34 -29 4 -103 -36 -88
-107 -316 -116 -370 -7 -47 -20 -53 -55 -25 l-22 18 26 87 c15 48 29 94 32
102 5 13 -8 15 -85 15 -107 0 -98 8 -136 -141 -15 -57 -29 -107 -33 -110 -15
-14 -52 10 -52 34 0 43 69 276 111 375 22 53 46 109 52 125 14 33 44 35 58 3z
m1910 0 c9 -19 6 -32 -15 -73 -14 -28 -34 -74 -45 -102 l-19 -51 82 0 c51 0
88 5 98 13 9 6 28 48 42 93 33 99 45 119 73 110 31 -10 35 -33 14 -75 -28 -54
-109 -305 -123 -378 -12 -67 -22 -74 -58 -45 l-22 18 30 102 30 102 -93 0 -92
0 -21 -72 c-12 -40 -27 -98 -35 -128 -11 -45 -17 -54 -33 -52 -32 6 -44 22
-38 51 54 226 163 511 196 511 10 0 23 -11 29 -24z m-1301 -31 c10 -13 10 -22
-3 -53 -8 -20 -32 -77 -52 -127 -21 -49 -48 -130 -60 -180 -24 -94 -43 -116
-65 -74 -20 37 -4 93 121 427 10 25 41 29 59 7z m2443 -17 c8 -12 2 -35 -25
-95 -20 -43 -39 -94 -43 -113 -4 -19 -12 -40 -17 -47 -5 -6 -12 -38 -14 -70
-3 -32 -7 -68 -10 -80 -8 -40 -64 -23 -64 19 0 16 -6 14 -42 -12 -107 -78
-170 25 -87 140 40 55 85 82 131 78 l37 -3 32 80 c17 44 38 90 46 103 16 26
40 26 56 0z m-2107 -46 c16 -10 26 -46 18 -65 -14 -36 -74 -25 -74 14 0 44 28
70 56 51z m2282 -108 c25 -17 29 -51 8 -79 -12 -16 -16 -17 -30 -6 -9 7 -16
20 -16 27 0 22 -26 16 -59 -12 -39 -33 -39 -49 0 -69 18 -10 37 -31 46 -53 15
-35 14 -37 -12 -59 -48 -42 -153 -23 -143 26 3 12 12 15 36 13 17 -2 40 1 49
7 16 8 15 11 -12 21 -92 35 -88 109 8 168 58 35 91 40 125 16z m-2848 -4 c34
-18 42 -46 26 -83 -19 -47 -51 -67 -108 -67 -41 0 -48 -3 -48 -20 0 -32 32
-42 71 -21 39 21 59 17 59 -9 0 -29 -61 -70 -104 -70 -84 0 -111 86 -60 189
39 77 108 111 164 81z m281 -11 c13 -18 17 -19 41 -9 43 20 75 6 89 -39 11
-36 9 -44 -15 -85 -29 -50 -104 -101 -135 -93 -16 4 -23 -7 -42 -67 -13 -39
-27 -77 -32 -83 -14 -19 -35 -16 -47 7 -8 15 0 52 39 170 40 121 48 155 39
169 -27 44 35 73 63 30z m420 5 c10 -13 8 -24 -15 -72 l-28 -56 41 37 c67 60
111 45 111 -38 0 -35 1 -36 30 -30 37 8 37 1 4 -42 -43 -56 -94 -41 -94 29 0
21 -3 38 -7 38 -3 0 -30 -22 -59 -50 -53 -51 -68 -57 -93 -41 -21 14 -9 88 29
170 34 73 54 87 81 55z m398 -19 c35 -40 37 -52 17 -80 -7 -11 -26 -63 -41
-115 -42 -146 -69 -190 -115 -190 -15 0 -36 10 -48 23 -24 26 -45 75 -36 88
11 18 41 9 52 -16 12 -26 36 -33 48 -14 3 6 14 38 24 70 18 57 17 58 0 49 -35
-19 -78 -12 -96 15 -27 41 -10 98 45 156 39 41 53 49 83 49 29 0 42 -7 67 -35z
m843 -2 c28 -30 34 -42 28 -58 -17 -42 -11 -76 19 -103 24 -20 28 -29 20 -44
-15 -28 -48 -21 -85 17 -20 21 -35 31 -39 24 -4 -6 -25 -24 -47 -40 -51 -37
-90 -38 -117 -3 -19 24 -19 28 -5 62 23 56 73 129 106 157 43 36 77 32 120
-12z m189 17 c21 -12 25 -50 8 -82 -17 -31 -7 -30 46 7 79 56 105 44 105 -48
0 -32 4 -67 10 -77 13 -24 -11 -44 -45 -36 -23 6 -25 11 -25 61 0 30 -4 55 -9
55 -12 0 -58 -35 -107 -83 -35 -33 -45 -37 -62 -28 -33 17 -33 38 -1 119 17
42 35 87 40 100 10 25 13 26 40 12z m-1601 -40 c8 -15 7 -35 -5 -79 -8 -32
-15 -70 -15 -84 0 -55 -29 -77 -50 -38 -14 27 -13 71 6 152 12 55 19 69 34 69
11 0 24 -9 30 -20z"/>
<path d="M3253 536 c-32 -27 -71 -92 -61 -102 16 -15 124 98 112 117 -8 14
-21 11 -51 -15z"/>
<path d="M712 567 c-27 -28 -28 -37 -4 -37 21 0 66 43 55 53 -12 13 -29 7 -51
-16z"/>
<path d="M1089 529 c-28 -30 -39 -69 -20 -69 19 0 60 45 67 73 8 37 -10 35
-47 -4z"/>
<path d="M1785 556 c-24 -24 -42 -72 -32 -82 22 -22 95 60 83 91 -8 21 -23 19
-51 -9z"/>
<path d="M2630 538 c-41 -56 -63 -98 -51 -98 19 0 112 100 109 117 -6 10 -27
24 -58 -19z"/>
</g>
</svg>
